<?xml version="1.0" standalone="no"?>
<!DOCTYPE svg PUBLIC "-//W3C//DTD SVG 20010904//EN"
 "http://www.w3.org/TR/2001/REC-SVG-20010904/DTD/svg10.dtd">
<svg version="1.0" xmlns="http://www.w3.org/2000/svg"
 width="108.000000pt" height="108.000000pt" viewBox="0 0 108.000000 108.000000"
 preserveAspectRatio="xMidYMid meet">
<metadata>
Created by potrace 1.14, written by Peter Selinger 2001-2017
</metadata>
<g transform="translate(0.000000,108.000000) scale(0.100000,-0.100000)"
fill="#000000" stroke="none">
<path d="M158 920 l-128 -159 60 -12 c33 -6 60 -14 60 -16 0 -3 -8 -17 -19
-31 -10 -15 -28 -46 -40 -69 -11 -23 -29 -44 -40 -48 -30 -9 -45 -70 -45 -180
0 -131 1 -135 63 -135 l50 0 -9 30 c-9 31 -7 181 3 232 3 16 0 32 -9 39 -11 9
-10 18 8 52 39 77 50 91 60 73 7 -13 14 -10 39 18 58 67 174 129 262 141 18 2
58 4 90 4 50 1 58 3 55 19 -3 9 10 36 28 58 18 23 34 47 36 54 3 10 -134 44
-307 75 -97 18 -78 30 -217 -145z"/>
<path d="M467 838 c-212 -37 -352 -214 -343 -436 7 -168 90 -292 245 -366 62
-29 73 -31 181 -31 110 0 118 1 182 33 42 21 82 50 108 80 70 78 70 76 -11
117 l-71 36 -37 -39 c-53 -58 -94 -76 -172 -76 -54 1 -75 6 -112 27 -90 53
-129 124 -131 237 -2 155 91 260 234 266 79 3 136 -21 183 -76 l31 -38 71 35
c38 20 72 37 74 39 6 6 -60 86 -96 118 -76 65 -213 95 -336 74z"/>
</g>
</svg>
